<svg width="24" height="24" viewBox="0 0 24 24" fill="none" xmlns="http://www.w3.org/2000/svg">
<path d="M17.2959 12.7959L9.79593 20.2959C9.58458 20.5072 9.29794 20.626 8.99905 20.626C8.70017 20.626 8.41352 20.5072 8.20218 20.2959C7.99083 20.0846 7.8721 19.7979 7.8721 19.499C7.8721 19.2001 7.99083 18.9135 8.20218 18.7021L14.9062 12L8.20405 5.2959C8.09941 5.19125 8.01639 5.06702 7.95976 4.93029C7.90313 4.79356 7.87398 4.64702 7.87398 4.49902C7.87398 4.35103 7.90313 4.20448 7.95976 4.06776C8.01639 3.93103 8.09941 3.80679 8.20405 3.70215C8.3087 3.5975 8.43293 3.51449 8.56966 3.45785C8.70639 3.40122 8.85293 3.37207 9.00093 3.37207C9.14892 3.37207 9.29547 3.40122 9.43219 3.45785C9.56892 3.51449 9.69316 3.5975 9.7978 3.70215L17.2978 11.2021C17.4026 11.3068 17.4856 11.4311 17.5423 11.5679C17.5989 11.7047 17.6279 11.8513 17.6278 11.9994C17.6276 12.1475 17.5982 12.2941 17.5412 12.4307C17.4843 12.5674 17.4009 12.6915 17.2959 12.7959Z" fill="#0D0D0D"/>
</svg>
