<svg width="24" height="24" viewBox="0 0 24 24" fill="none" xmlns="http://www.w3.org/2000/svg">
<path d="M6.70404 11.2041L14.204 3.7041C14.4154 3.49276 14.702 3.37403 15.0009 3.37403C15.2998 3.37403 15.5864 3.49276 15.7978 3.7041C16.0091 3.91545 16.1279 4.20209 16.1279 4.50098C16.1279 4.79986 16.0091 5.08651 15.7978 5.29785L9.09373 12L15.7959 18.7041C15.9006 18.8088 15.9836 18.933 16.0402 19.0697C16.0968 19.2064 16.126 19.353 16.126 19.501C16.126 19.649 16.0968 19.7955 16.0402 19.9322C15.9836 20.069 15.9006 20.1932 15.7959 20.2979C15.6913 20.4025 15.567 20.4855 15.4303 20.5421C15.2936 20.5988 15.147 20.6279 14.999 20.6279C14.851 20.6279 14.7045 20.5988 14.5678 20.5421C14.431 20.4855 14.3068 20.4025 14.2022 20.2979L6.70217 12.7979C6.59741 12.6932 6.51434 12.5689 6.45772 12.4321C6.4011 12.2953 6.37204 12.1487 6.37222 12.0006C6.37239 11.8525 6.40179 11.7059 6.45873 11.5693C6.51568 11.4326 6.59904 11.3085 6.70404 11.2041Z" fill="#0D0D0D"/>
</svg>
