<svg width="28" height="29" viewBox="0 0 28 29" fill="none" xmlns="http://www.w3.org/2000/svg">
<path d="M14 3.125C11.7502 3.125 9.551 3.79213 7.68039 5.04203C5.80978 6.29193 4.35182 8.06847 3.49088 10.147C2.62993 12.2255 2.40467 14.5126 2.84357 16.7192C3.28248 18.9257 4.36584 20.9525 5.95667 22.5433C7.54749 24.1342 9.57432 25.2175 11.7809 25.6564C13.9874 26.0953 16.2745 25.8701 18.353 25.0091C20.4315 24.1482 22.2081 22.6902 23.458 20.8196C24.7079 18.949 25.375 16.7498 25.375 14.5C25.3718 11.4841 24.1724 8.59271 22.0398 6.46018C19.9073 4.32764 17.0159 3.12818 14 3.125ZM14.875 24.0845V17.125H17.5C17.7321 17.125 17.9546 17.0328 18.1187 16.8687C18.2828 16.7046 18.375 16.4821 18.375 16.25C18.375 16.0179 18.2828 15.7954 18.1187 15.6313C17.9546 15.4672 17.7321 15.375 17.5 15.375H14.875V12.75C14.875 12.2859 15.0594 11.8408 15.3876 11.5126C15.7158 11.1844 16.1609 11 16.625 11H18.375C18.6071 11 18.8296 10.9078 18.9937 10.7437C19.1578 10.5796 19.25 10.3571 19.25 10.125C19.25 9.89294 19.1578 9.67038 18.9937 9.50628C18.8296 9.34219 18.6071 9.25 18.375 9.25H16.625C15.6967 9.25 14.8065 9.61875 14.1501 10.2751C13.4938 10.9315 13.125 11.8217 13.125 12.75V15.375H10.5C10.2679 15.375 10.0454 15.4672 9.88129 15.6313C9.71719 15.7954 9.625 16.0179 9.625 16.25C9.625 16.4821 9.71719 16.7046 9.88129 16.8687C10.0454 17.0328 10.2679 17.125 10.5 17.125H13.125V24.0845C10.6584 23.8594 8.3735 22.6919 6.74564 20.8251C5.11778 18.9583 4.27227 16.5358 4.38497 14.0614C4.49768 11.5871 5.55992 9.25148 7.35074 7.54037C9.14157 5.82925 11.5231 4.87439 14 4.87439C16.4769 4.87439 18.8584 5.82925 20.6493 7.54037C22.4401 9.25148 23.5023 11.5871 23.615 14.0614C23.7277 16.5358 22.8822 18.9583 21.2544 20.8251C19.6265 22.6919 17.3416 23.8594 14.875 24.0845Z" fill="#0D0D0D"/>
</svg>
