<svg width="28" height="29" viewBox="0 0 28 29" fill="none" xmlns="http://www.w3.org/2000/svg">
<path d="M14 9.25C12.9616 9.25 11.9466 9.55791 11.0833 10.1348C10.2199 10.7117 9.54699 11.5316 9.14963 12.4909C8.75227 13.4502 8.64831 14.5058 8.85088 15.5242C9.05345 16.5426 9.55346 17.4781 10.2877 18.2123C11.0219 18.9465 11.9574 19.4466 12.9758 19.6491C13.9942 19.8517 15.0498 19.7477 16.0091 19.3504C16.9684 18.953 17.7883 18.2801 18.3652 17.4167C18.9421 16.5534 19.25 15.5384 19.25 14.5C19.2486 13.1081 18.695 11.7735 17.7107 10.7893C16.7265 9.80504 15.3919 9.25145 14 9.25ZM14 18C13.3078 18 12.6311 17.7947 12.0555 17.4101C11.4799 17.0256 11.0313 16.4789 10.7664 15.8394C10.5015 15.1999 10.4322 14.4961 10.5673 13.8172C10.7023 13.1383 11.0356 12.5146 11.5251 12.0251C12.0146 11.5356 12.6383 11.2023 13.3172 11.0673C13.9961 10.9322 14.6999 11.0015 15.3394 11.2664C15.9789 11.5313 16.5256 11.9799 16.9101 12.5555C17.2947 13.1311 17.5 13.8078 17.5 14.5C17.5 15.4283 17.1313 16.3185 16.4749 16.9749C15.8185 17.6313 14.9283 18 14 18ZM19.25 3.125H8.75C7.12608 3.12674 5.56917 3.77261 4.42089 4.92089C3.27261 6.06917 2.62674 7.62608 2.625 9.25V19.75C2.62674 21.3739 3.27261 22.9308 4.42089 24.0791C5.56917 25.2274 7.12608 25.8733 8.75 25.875H19.25C20.8739 25.8733 22.4308 25.2274 23.5791 24.0791C24.7274 22.9308 25.3733 21.3739 25.375 19.75V9.25C25.3733 7.62608 24.7274 6.06917 23.5791 4.92089C22.4308 3.77261 20.8739 3.12674 19.25 3.125ZM23.625 19.75C23.625 20.9103 23.1641 22.0231 22.3436 22.8436C21.5231 23.6641 20.4103 24.125 19.25 24.125H8.75C7.58968 24.125 6.47688 23.6641 5.65641 22.8436C4.83594 22.0231 4.375 20.9103 4.375 19.75V9.25C4.375 8.08968 4.83594 6.97688 5.65641 6.15641C6.47688 5.33594 7.58968 4.875 8.75 4.875H19.25C20.4103 4.875 21.5231 5.33594 22.3436 6.15641C23.1641 6.97688 23.625 8.08968 23.625 9.25V19.75ZM21 8.8125C21 9.07209 20.923 9.32585 20.7788 9.54169C20.6346 9.75752 20.4296 9.92575 20.1898 10.0251C19.9499 10.1244 19.686 10.1504 19.4314 10.0998C19.1768 10.0491 18.943 9.92413 18.7594 9.74058C18.5759 9.55702 18.4509 9.32316 18.4002 9.06856C18.3496 8.81396 18.3756 8.55006 18.4749 8.31023C18.5742 8.0704 18.7425 7.86542 18.9583 7.7212C19.1742 7.57698 19.4279 7.5 19.6875 7.5C20.0356 7.5 20.3694 7.63828 20.6156 7.88442C20.8617 8.13056 21 8.4644 21 8.8125Z" fill="#0D0D0D"/>
</svg>
