<svg width="28" height="29" viewBox="0 0 28 29" fill="none" xmlns="http://www.w3.org/2000/svg">
<path d="M23.625 3.125H4.375C3.91087 3.125 3.46575 3.30937 3.13756 3.63756C2.80937 3.96575 2.625 4.41087 2.625 4.875V24.125C2.625 24.5891 2.80937 25.0342 3.13756 25.3624C3.46575 25.6906 3.91087 25.875 4.375 25.875H23.625C24.0891 25.875 24.5342 25.6906 24.8624 25.3624C25.1906 25.0342 25.375 24.5891 25.375 24.125V4.875C25.375 4.41087 25.1906 3.96575 24.8624 3.63756C24.5342 3.30937 24.0891 3.125 23.625 3.125ZM23.625 24.125H4.375V4.875H23.625V24.125ZM10.5 12.75V19.75C10.5 19.9821 10.4078 20.2046 10.2437 20.3687C10.0796 20.5328 9.85706 20.625 9.625 20.625C9.39294 20.625 9.17038 20.5328 9.00628 20.3687C8.84219 20.2046 8.75 19.9821 8.75 19.75V12.75C8.75 12.5179 8.84219 12.2954 9.00628 12.1313C9.17038 11.9672 9.39294 11.875 9.625 11.875C9.85706 11.875 10.0796 11.9672 10.2437 12.1313C10.4078 12.2954 10.5 12.5179 10.5 12.75ZM20.125 15.8125V19.75C20.125 19.9821 20.0328 20.2046 19.8687 20.3687C19.7046 20.5328 19.4821 20.625 19.25 20.625C19.0179 20.625 18.7954 20.5328 18.6313 20.3687C18.4672 20.2046 18.375 19.9821 18.375 19.75V15.8125C18.375 15.2323 18.1445 14.6759 17.7343 14.2657C17.3241 13.8555 16.7677 13.625 16.1875 13.625C15.6073 13.625 15.0509 13.8555 14.6407 14.2657C14.2305 14.6759 14 15.2323 14 15.8125V19.75C14 19.9821 13.9078 20.2046 13.7437 20.3687C13.5796 20.5328 13.3571 20.625 13.125 20.625C12.8929 20.625 12.6704 20.5328 12.5063 20.3687C12.3422 20.2046 12.25 19.9821 12.25 19.75V12.75C12.2511 12.5357 12.3308 12.3292 12.474 12.1697C12.6172 12.0103 12.814 11.9089 13.027 11.8849C13.24 11.8609 13.4543 11.9159 13.6295 12.0395C13.8046 12.1631 13.9283 12.3466 13.977 12.5553C14.569 12.1538 15.2591 11.921 15.9733 11.8821C16.6875 11.8432 17.3988 11.9996 18.0309 12.3344C18.6629 12.6693 19.1918 13.17 19.5607 13.7828C19.9297 14.3955 20.1248 15.0972 20.125 15.8125ZM10.9375 9.6875C10.9375 9.94709 10.8605 10.2008 10.7163 10.4167C10.5721 10.6325 10.3671 10.8008 10.1273 10.9001C9.88744 10.9994 9.62354 11.0254 9.36894 10.9748C9.11434 10.9241 8.88048 10.7991 8.69692 10.6156C8.51337 10.432 8.38836 10.1982 8.33772 9.94356C8.28708 9.68896 8.31307 9.42506 8.41241 9.18523C8.51175 8.9454 8.67998 8.74042 8.89581 8.5962C9.11165 8.45198 9.36541 8.375 9.625 8.375C9.9731 8.375 10.3069 8.51328 10.5531 8.75942C10.7992 9.00556 10.9375 9.3394 10.9375 9.6875Z" fill="#0D0D0D"/>
</svg>
