<svg width="123" height="40" viewBox="0 0 123 40" fill="none" xmlns="http://www.w3.org/2000/svg">
<path d="M17.3507 5.26522C18.4623 3.07683 21.5883 3.07683 22.7 5.26522L26.3214 12.3942C26.61 12.9622 27.0719 13.4236 27.6401 13.7115L34.7694 17.3239C36.9614 18.4347 36.9614 21.5654 34.7694 22.6761L27.6401 26.2885C27.0718 26.5764 26.61 27.0378 26.3214 27.6058L22.7 34.7348C21.5883 36.9232 18.4623 36.9232 17.3507 34.7348L13.7292 27.6058C13.4407 27.0378 12.9788 26.5764 12.4105 26.2885L5.2813 22.6761C3.08927 21.5653 3.08927 18.4346 5.28131 17.3239L12.4105 13.7115C12.9788 13.4236 13.4407 12.9622 13.7292 12.3942L17.3507 5.26522Z" fill="white"/>
<path d="M54.6223 17.0925C54.5583 16.4479 54.2836 15.9472 53.7982 15.5903C53.3129 15.2334 52.6542 15.055 51.8222 15.055C51.2569 15.055 50.7795 15.1349 50.3902 15.2947C50.0008 15.4492 49.7022 15.6649 49.4942 15.9419C49.2915 16.2189 49.1901 16.5332 49.1901 16.8847C49.1795 17.1777 49.2408 17.4334 49.3741 17.6518C49.5128 17.8702 49.7022 18.0593 49.9422 18.2191C50.1822 18.3735 50.4595 18.5094 50.7742 18.6266C51.0889 18.7384 51.4249 18.8343 51.7822 18.9142L53.2542 19.2658C53.9689 19.4256 54.6249 19.6386 55.2223 19.905C55.8196 20.1713 56.337 20.4989 56.7743 20.8877C57.2117 21.2766 57.5503 21.7347 57.7903 22.262C58.0357 22.7894 58.161 23.394 58.1663 24.0758C58.161 25.0772 57.905 25.9454 57.3983 26.6805C56.897 27.4103 56.1716 27.9776 55.2223 28.3824C54.2783 28.7819 53.1396 28.9817 51.8062 28.9817C50.4835 28.9817 49.3315 28.7793 48.3501 28.3744C47.3741 27.9696 46.6114 27.3703 46.0621 26.5767C45.5181 25.7777 45.2327 24.7896 45.2061 23.6123H48.5581C48.5955 24.161 48.7528 24.6191 49.0301 24.9866C49.3128 25.3489 49.6888 25.6232 50.1582 25.8096C50.6328 25.9907 51.1689 26.0813 51.7662 26.0813C52.3529 26.0813 52.8622 25.996 53.2942 25.8256C53.7316 25.6551 54.0703 25.4181 54.3103 25.1145C54.5503 24.8109 54.6703 24.462 54.6703 24.0678C54.6703 23.7002 54.5609 23.3913 54.3423 23.1409C54.1289 22.8906 53.8142 22.6775 53.3982 22.5017C52.9876 22.326 52.4836 22.1661 51.8862 22.0223L50.1022 21.5749C48.7208 21.2393 47.6301 20.7146 46.8301 20.0008C46.0301 19.2871 45.6327 18.3256 45.6381 17.1164C45.6327 16.1257 45.8967 15.2601 46.4301 14.5197C46.9688 13.7793 47.7074 13.2013 48.6461 12.7858C49.5848 12.3703 50.6515 12.1626 51.8462 12.1626C53.0622 12.1626 54.1236 12.3703 55.0303 12.7858C55.9423 13.2013 56.6516 13.7793 57.1583 14.5197C57.665 15.2601 57.9263 16.1177 57.9423 17.0925H54.6223Z" fill="white"/>
<path d="M65.9845 28.9897C64.7418 28.9897 63.6671 28.726 62.7604 28.1986C61.8591 27.666 61.1631 26.9256 60.6724 25.9774C60.1817 25.0239 59.9364 23.9186 59.9364 22.6615C59.9364 21.3938 60.1817 20.2858 60.6724 19.3377C61.1631 18.3842 61.8591 17.6438 62.7604 17.1164C63.6671 16.5838 64.7418 16.3174 65.9845 16.3174C67.2272 16.3174 68.2992 16.5838 69.2006 17.1164C70.1073 17.6438 70.806 18.3842 71.2966 19.3377C71.7873 20.2858 72.0327 21.3938 72.0327 22.6615C72.0327 23.9186 71.7873 25.0239 71.2966 25.9774C70.806 26.9256 70.1073 27.666 69.2006 28.1986C68.2992 28.726 67.2272 28.9897 65.9845 28.9897ZM66.0005 26.3529C66.5659 26.3529 67.0379 26.1931 67.4165 25.8735C67.7952 25.5486 68.0806 25.1065 68.2726 24.5472C68.4699 23.9879 68.5686 23.3513 68.5686 22.6376C68.5686 21.9238 68.4699 21.2872 68.2726 20.7279C68.0806 20.1686 67.7952 19.7265 67.4165 19.4016C67.0379 19.0767 66.5659 18.9142 66.0005 18.9142C65.4298 18.9142 64.9498 19.0767 64.5605 19.4016C64.1765 19.7265 63.8858 20.1686 63.6885 20.7279C63.4965 21.2872 63.4005 21.9238 63.4005 22.6376C63.4005 23.3513 63.4965 23.9879 63.6885 24.5472C63.8858 25.1065 64.1765 25.5486 64.5605 25.8735C64.9498 26.1931 65.4298 26.3529 66.0005 26.3529Z" fill="white"/>
<path d="M79.8008 28.9897C78.5581 28.9897 77.4834 28.726 76.5768 28.1986C75.6754 27.666 74.9794 26.9256 74.4887 25.9774C73.998 25.0239 73.7527 23.9186 73.7527 22.6615C73.7527 21.3938 73.998 20.2858 74.4887 19.3377C74.9794 18.3842 75.6754 17.6438 76.5768 17.1164C77.4834 16.5838 78.5581 16.3174 79.8008 16.3174C81.0435 16.3174 82.1155 16.5838 83.0169 17.1164C83.9236 17.6438 84.6223 18.3842 85.1129 19.3377C85.6036 20.2858 85.849 21.3938 85.849 22.6615C85.849 23.9186 85.6036 25.0239 85.1129 25.9774C84.6223 26.9256 83.9236 27.666 83.0169 28.1986C82.1155 28.726 81.0435 28.9897 79.8008 28.9897ZM79.8168 26.3529C80.3822 26.3529 80.8542 26.1931 81.2329 25.8735C81.6115 25.5486 81.8969 25.1065 82.0889 24.5472C82.2862 23.9879 82.3849 23.3513 82.3849 22.6376C82.3849 21.9238 82.2862 21.2872 82.0889 20.7279C81.8969 20.1686 81.6115 19.7265 81.2329 19.4016C80.8542 19.0767 80.3822 18.9142 79.8168 18.9142C79.2461 18.9142 78.7661 19.0767 78.3768 19.4016C77.9928 19.7265 77.7021 20.1686 77.5048 20.7279C77.3128 21.2872 77.2168 21.9238 77.2168 22.6376C77.2168 23.3513 77.3128 23.9879 77.5048 24.5472C77.7021 25.1065 77.9928 25.5486 78.3768 25.8735C78.7661 26.1931 79.2461 26.3529 79.8168 26.3529Z" fill="white"/>
<path d="M91.4731 21.6548V28.75H88.065V16.4772H91.3131V18.6425H91.4571C91.7291 17.9288 92.1851 17.3641 92.8251 16.9486C93.4651 16.5278 94.2411 16.3174 95.1532 16.3174C96.0065 16.3174 96.7505 16.5039 97.3852 16.8767C98.0199 17.2496 98.5132 17.7823 98.8652 18.4747C99.2173 19.1619 99.3933 19.9822 99.3933 20.9357V28.75H95.9852V21.5429C95.9905 20.7919 95.7985 20.2059 95.4092 19.7851C95.0198 19.359 94.4838 19.1459 93.8011 19.1459C93.3425 19.1459 92.9371 19.2445 92.5851 19.4415C92.2384 19.6386 91.9664 19.9263 91.7691 20.3045C91.5771 20.6773 91.4784 21.1274 91.4731 21.6548Z" fill="white"/>
<path d="M107.679 28.9897C106.415 28.9897 105.327 28.734 104.415 28.2226C103.509 27.7059 102.81 26.9762 102.319 26.0333C101.829 25.0852 101.583 23.9639 101.583 22.6695C101.583 21.4071 101.829 20.2991 102.319 19.3457C102.81 18.3922 103.501 17.6491 104.391 17.1164C105.287 16.5838 106.338 16.3174 107.543 16.3174C108.354 16.3174 109.109 16.4479 109.807 16.7089C110.512 16.9646 111.125 17.3508 111.648 17.8675C112.176 18.3842 112.586 19.034 112.88 19.8171C113.173 20.5948 113.32 21.5056 113.32 22.5497V23.4845H102.943V21.3751H110.112C110.112 20.8851 110.005 20.451 109.791 20.0728C109.578 19.6946 109.282 19.3989 108.903 19.1859C108.53 18.9675 108.095 18.8583 107.599 18.8583C107.082 18.8583 106.623 18.9781 106.223 19.2178C105.829 19.4522 105.519 19.7691 105.295 20.1686C105.071 20.5628 104.957 21.0023 104.951 21.487V23.4925C104.951 24.0997 105.063 24.6244 105.287 25.0665C105.517 25.5087 105.839 25.8496 106.255 26.0893C106.671 26.329 107.165 26.4488 107.735 26.4488C108.114 26.4488 108.461 26.3956 108.775 26.289C109.09 26.1825 109.359 26.0227 109.583 25.8096C109.807 25.5965 109.978 25.3355 110.096 25.0266L113.248 25.2343C113.088 25.9907 112.76 26.6512 112.264 27.2159C111.773 27.7752 111.138 28.212 110.36 28.5262C109.586 28.8352 108.693 28.9897 107.679 28.9897Z" fill="white"/>
<path d="M115.544 28.75V16.4772H118.848V18.6186H118.976C119.2 17.8568 119.576 17.2816 120.104 16.8927C120.632 16.4985 121.24 16.3014 121.928 16.3014C122.098 16.3014 122.282 16.3121 122.48 16.3334C122.677 16.3547 122.85 16.384 123 16.4213V19.4415C122.84 19.3936 122.618 19.351 122.336 19.3137C122.053 19.2764 121.794 19.2578 121.56 19.2578C121.058 19.2578 120.61 19.367 120.216 19.5854C119.826 19.7984 119.517 20.0967 119.288 20.4802C119.064 20.8638 118.952 21.3059 118.952 21.8066V28.75H115.544Z" fill="white"/>
</svg>
