<svg width="24" height="28" viewBox="0 0 24 28" fill="none" xmlns="http://www.w3.org/2000/svg">
<path d="M19 18.0001C18.3329 17.9999 17.6726 18.1335 17.0581 18.3931C16.4436 18.6527 15.8874 19.0329 15.4225 19.5113L9.66 15.8076C10.1133 14.6452 10.1133 13.355 9.66 12.1926L15.4225 8.48885C16.2881 9.3755 17.452 9.90916 18.6887 9.98638C19.9254 10.0636 21.1467 9.67887 22.1158 8.90678C23.085 8.13469 23.7329 7.03025 23.934 5.80758C24.1351 4.58492 23.8751 3.33113 23.2043 2.28931C22.5335 1.24749 21.4997 0.491856 20.3035 0.168909C19.1072 -0.154038 17.8336 -0.0212904 16.7297 0.541416C15.6257 1.10412 14.77 2.0567 14.3285 3.21446C13.887 4.37222 13.8911 5.65269 14.34 6.8076L8.5775 10.5113C7.88358 9.79894 6.99298 9.30965 6.01954 9.10603C5.04611 8.9024 4.03406 8.99369 3.11278 9.36822C2.19149 9.74276 1.40283 10.3835 0.847593 11.2086C0.29236 12.0337 -0.00421143 13.0056 -0.00421143 14.0001C-0.00421143 14.9946 0.29236 15.9665 0.847593 16.7916C1.40283 17.6167 2.19149 18.2574 3.11278 18.632C4.03406 19.0065 5.04611 19.0978 6.01954 18.8942C6.99298 18.6905 7.88358 18.2013 8.5775 17.4888L14.34 21.1926C13.954 22.1883 13.8968 23.2814 14.177 24.3118C14.4571 25.3423 15.0599 26.256 15.8969 26.9192C16.7339 27.5823 17.7612 27.9601 18.8285 27.9971C19.8957 28.0341 20.9468 27.7285 21.8277 27.125C22.7087 26.5214 23.3733 25.6517 23.7242 24.6431C24.0751 23.6345 24.0939 22.5401 23.7778 21.5201C23.4617 20.5 22.8273 19.608 21.9676 18.9746C21.1078 18.3412 20.0679 17.9997 19 18.0001ZM19 2.0001C19.5933 2.0001 20.1734 2.17604 20.6667 2.50569C21.1601 2.83533 21.5446 3.30387 21.7716 3.85205C21.9987 4.40023 22.0581 5.00343 21.9424 5.58537C21.8266 6.16731 21.5409 6.70186 21.1213 7.12142C20.7018 7.54098 20.1672 7.8267 19.5853 7.94245C19.0033 8.05821 18.4001 7.9988 17.8519 7.77174C17.3038 7.54467 16.8352 7.16016 16.5056 6.66681C16.1759 6.17346 16 5.59344 16 5.0001C16 4.20445 16.3161 3.44139 16.8787 2.87878C17.4413 2.31617 18.2043 2.0001 19 2.0001ZM5 17.0001C4.40665 17.0001 3.82663 16.8242 3.33328 16.4945C2.83994 16.1649 2.45542 15.6963 2.22836 15.1481C2.00129 14.6 1.94188 13.9968 2.05764 13.4148C2.1734 12.8329 2.45912 12.2983 2.87868 11.8788C3.29823 11.4592 3.83278 11.1735 4.41472 11.0577C4.99667 10.942 5.59987 11.0014 6.14805 11.2285C6.69622 11.4555 7.16476 11.84 7.4944 12.3334C7.82405 12.8267 8 13.4068 8 14.0001C8 14.7957 7.68393 15.5588 7.12132 16.1214C6.55871 16.684 5.79564 17.0001 5 17.0001ZM19 26.0001C18.4067 26.0001 17.8266 25.8242 17.3333 25.4945C16.8399 25.1649 16.4554 24.6963 16.2284 24.1481C16.0013 23.6 15.9419 22.9968 16.0576 22.4148C16.1734 21.8329 16.4591 21.2983 16.8787 20.8788C17.2982 20.4592 17.8328 20.1735 18.4147 20.0577C18.9967 19.942 19.5999 20.0014 20.148 20.2285C20.6962 20.4555 21.1648 20.84 21.4944 21.3334C21.824 21.8267 22 22.4068 22 23.0001C22 23.7957 21.6839 24.5588 21.1213 25.1214C20.5587 25.684 19.7956 26.0001 19 26.0001Z" fill="#0D0D0D"/>
</svg>
