<svg width="20" height="20" viewBox="0 0 20 20" fill="none" xmlns="http://www.w3.org/2000/svg">
<path d="M10 19.375C9.70163 19.375 9.41548 19.2565 9.2045 19.0455C8.99353 18.8345 8.875 18.5484 8.875 18.25L8.875 11.125L1.75 11.125C1.45163 11.125 1.16548 11.0065 0.954505 10.7955C0.743527 10.5845 0.625 10.2984 0.625 10C0.625 9.70163 0.743527 9.41548 0.954505 9.2045C1.16548 8.99353 1.45163 8.875 1.75 8.875L8.875 8.875L8.875 1.75C8.875 1.45163 8.99353 1.16548 9.20451 0.954504C9.41548 0.743526 9.70163 0.625 10 0.625C10.2984 0.625 10.5845 0.743526 10.7955 0.954505C11.0065 1.16548 11.125 1.45163 11.125 1.75L11.125 8.875L18.25 8.875C18.5484 8.875 18.8345 8.99353 19.0455 9.2045C19.2565 9.41548 19.375 9.70163 19.375 10C19.375 10.2984 19.2565 10.5845 19.0455 10.7955C18.8345 11.0065 18.5484 11.125 18.25 11.125L11.125 11.125L11.125 18.25C11.125 18.5484 11.0065 18.8345 10.7955 19.0455C10.5845 19.2565 10.2984 19.375 10 19.375Z" fill="#141414"/>
</svg>
