<svg width="26" height="26" viewBox="0 0 26 26" fill="none" xmlns="http://www.w3.org/2000/svg">
<path d="M6.99999 20.5001C6.99999 20.7968 6.91202 21.0868 6.74719 21.3335C6.58237 21.5801 6.3481 21.7724 6.07401 21.8859C5.79993 21.9994 5.49832 22.0292 5.20735 21.9713C4.91638 21.9134 4.64911 21.7705 4.43933 21.5608C4.22955 21.351 4.08669 21.0837 4.02881 20.7927C3.97093 20.5018 4.00064 20.2002 4.11417 19.9261C4.2277 19.652 4.41996 19.4177 4.66663 19.2529C4.91331 19.0881 5.20332 19.0001 5.49999 19.0001C5.89781 19.0001 6.27934 19.1581 6.56065 19.4394C6.84195 19.7207 6.99999 20.1023 6.99999 20.5001ZM26 17.5238V24.0001C26 24.5305 25.7893 25.0392 25.4142 25.4143C25.0391 25.7894 24.5304 26.0001 24 26.0001H5.49999C5.16733 26.0003 4.83527 25.9719 4.50749 25.9151C3.07752 25.6542 1.80898 24.8379 0.979113 23.6445C0.149244 22.4511 -0.174464 20.9777 0.0787389 19.5463L3.20374 1.6551C3.24816 1.39658 3.34318 1.14937 3.48337 0.927662C3.62355 0.705953 3.80614 0.514106 4.02064 0.363128C4.23515 0.212151 4.47735 0.105014 4.73336 0.0478642C4.98937 -0.00928523 5.25414 -0.0153222 5.51249 0.0300998L12.355 1.2501C12.8756 1.34393 13.3379 1.64021 13.6406 2.07408C13.9432 2.50796 14.0617 3.04409 13.97 3.5651L12.46 12.1901L20.9362 9.1251C21.4331 8.94563 21.9808 8.97004 22.4597 9.193C22.9387 9.41596 23.31 9.81935 23.4925 10.3151L25.875 16.8363C25.9515 17.0578 25.9937 17.2896 26 17.5238ZM8.87499 21.1088L12 3.2176L5.18249 2.0001L2.05749 19.8876C1.89434 20.7974 2.09772 21.7348 2.62324 22.4953C3.14876 23.2557 3.95374 23.7773 4.86249 23.9464C5.30735 24.0261 5.76363 24.0167 6.20482 23.9186C6.64601 23.8206 7.06331 23.6358 7.43249 23.3751C7.8111 23.1118 8.1336 22.7758 8.38123 22.3868C8.62887 21.9977 8.79671 21.5633 8.87499 21.1088ZM10.5975 22.3751L24 17.5138L21.615 11.0001L12.0625 14.4626L10.84 21.4526C10.7856 21.7665 10.7045 22.0751 10.5975 22.3751ZM24 19.6401L11.9675 24.0001H24V19.6401Z" fill="#0D0D0D"/>
</svg>
