<svg width="62" height="45" viewBox="0 0 62 45" fill="none" xmlns="http://www.w3.org/2000/svg">
<path d="M0.5 29.8881C0.5 38.1157 6.53297 45 13.5714 45C20.4423 45 25.6374 39.7948 25.6374 33.0784C25.6374 25.8582 19.2692 20.9888 10.8901 20.4851C13.0687 15.1119 16.7555 9.40298 23.9615 2.18283L21.783 0C7.87362 7.89179 0.5 19.8134 0.5 29.8881ZM36.3626 29.8881C36.3626 38.1157 42.3956 45 49.4341 45C56.3049 45 61.5 39.7948 61.5 33.0784C61.5 25.8582 55.1319 20.9888 46.7527 20.4851C48.9313 15.1119 52.6181 9.40298 59.8242 2.18283L57.6456 0C43.7363 7.89179 36.3626 19.8134 36.3626 29.8881Z" fill="#0D0D0D"/>
</svg>
