<svg width="24" height="24" viewBox="0 0 24 24" fill="none" xmlns="http://www.w3.org/2000/svg">
<path d="M6.04596 19.5459C5.83461 19.7572 5.54797 19.876 5.24908 19.876C4.95019 19.876 4.66355 19.7572 4.45221 19.5459C4.24086 19.3346 4.12213 19.0479 4.12213 18.749C4.12213 18.4501 4.24086 18.1635 4.45221 17.9521L10.4063 12L4.45408 6.0459C4.24274 5.83455 4.124 5.54791 4.124 5.24902C4.124 4.95014 4.24274 4.66349 4.45408 4.45215C4.66543 4.2408 4.95207 4.12207 5.25096 4.12207C5.54984 4.12207 5.83649 4.2408 6.04783 4.45215L12 10.4062L17.9541 4.45402C18.1654 4.24268 18.4521 4.12395 18.751 4.12395C19.0498 4.12395 19.3365 4.24268 19.5478 4.45402C19.7592 4.66537 19.8779 4.95201 19.8779 5.2509C19.8779 5.54978 19.7592 5.83643 19.5478 6.04777L13.5938 12L19.5488 17.954C19.7601 18.1654 19.8788 18.452 19.8788 18.7509C19.8788 19.0498 19.7601 19.3364 19.5488 19.5478C19.3374 19.7591 19.0508 19.8778 18.7519 19.8778C18.453 19.8778 18.1664 19.7591 17.955 19.5478L12 13.5937L6.04596 19.5459Z" fill="#141414"/>
</svg>
