<svg width="28" height="29" viewBox="0 0 28 29" fill="none" xmlns="http://www.w3.org/2000/svg">
<path d="M17.9856 13.7716L12.7356 10.2716C12.6038 10.1836 12.4506 10.1331 12.2923 10.1255C12.1341 10.1178 11.9767 10.1532 11.837 10.228C11.6973 10.3028 11.5806 10.4141 11.4992 10.5501C11.4178 10.6861 11.3749 10.8416 11.375 11V18C11.3749 18.1585 11.4178 18.314 11.4992 18.4499C11.5806 18.5859 11.6973 18.6972 11.837 18.772C11.9767 18.8468 12.1341 18.8822 12.2923 18.8745C12.4506 18.8669 12.6038 18.8164 12.7356 18.7284L17.9856 15.2284C18.1056 15.1486 18.2041 15.0403 18.2722 14.9132C18.3402 14.7861 18.3759 14.6442 18.3759 14.5C18.3759 14.3558 18.3402 14.2139 18.2722 14.0868C18.2041 13.9597 18.1056 13.8514 17.9856 13.7716ZM13.125 16.3648V12.6406L15.9228 14.5L13.125 16.3648ZM25.6298 8.10375C25.5268 7.70054 25.3293 7.32761 25.0538 7.01573C24.7782 6.70384 24.4324 6.46195 24.045 6.31C20.2956 4.86188 14.3281 4.875 14 4.875C13.6719 4.875 7.70437 4.86188 3.955 6.31C3.56755 6.46195 3.22179 6.70384 2.94623 7.01573C2.67067 7.32761 2.47322 7.70054 2.37016 8.10375C2.08688 9.19532 1.75 11.1903 1.75 14.5C1.75 17.8097 2.08688 19.8047 2.37016 20.8963C2.47306 21.2997 2.67045 21.6728 2.94601 21.9849C3.22158 22.297 3.56743 22.539 3.955 22.6911C7.54688 24.0769 13.1687 24.125 13.9278 24.125H14.0722C14.8313 24.125 20.4564 24.0769 24.045 22.6911C24.4326 22.539 24.7784 22.297 25.054 21.9849C25.3296 21.6728 25.5269 21.2997 25.6298 20.8963C25.9131 19.8025 26.25 17.8097 26.25 14.5C26.25 11.1903 25.9131 9.19532 25.6298 8.10375ZM23.9356 20.4631C23.9023 20.5973 23.8376 20.7217 23.7469 20.8261C23.6563 20.9305 23.5421 21.0118 23.4139 21.0636C19.9522 22.4002 14.0645 22.3761 14.0077 22.3761H14C13.9409 22.3761 8.05766 22.398 4.59375 21.0636C4.46553 21.0118 4.3514 20.9305 4.26071 20.8261C4.17002 20.7217 4.10536 20.5973 4.07203 20.4631C3.80625 19.4645 3.5 17.6248 3.5 14.5C3.5 11.3752 3.80625 9.53547 4.06437 8.54235C4.09709 8.40736 4.16147 8.2821 4.25219 8.17692C4.34291 8.07174 4.45737 7.98968 4.58609 7.9375C7.92422 6.64797 13.5177 6.625 13.9759 6.625H14.0055C14.0645 6.625 19.9533 6.60532 23.4117 7.9375C23.5399 7.98925 23.6541 8.07065 23.7448 8.17503C23.8354 8.2794 23.9001 8.40378 23.9334 8.53797C24.1938 9.53547 24.5 11.3752 24.5 14.5C24.5 17.6248 24.1938 19.4645 23.9356 20.4577V20.4631Z" fill="#0D0D0D"/>
</svg>
